<mxfile host="Electron" modified="2023-06-08T12:45:57.890Z" agent="Mozilla/5.0 (Windows NT 10.0; Win64; x64) AppleWebKit/537.36 (KHTML, like Gecko) draw.io/21.2.8 Chrome/112.0.5615.165 Electron/24.2.0 Safari/537.36" etag="nbOitKVgmM9KFGGwIcc5" version="21.2.8" type="device">
  <diagram name="Page-1" id="EmzW9m4wEbgJ9OYB7BM4">
    <mxGraphModel dx="643" dy="442" grid="1" gridSize="10" guides="1" tooltips="1" connect="1" arrows="1" fold="1" page="1" pageScale="1" pageWidth="827" pageHeight="1169" math="0" shadow="0">
      <root>
        <mxCell id="0" />
        <mxCell id="1" parent="0" />
        <mxCell id="9axRHv_cUufyyjQwxjc5-1" value="" style="shape=waypoint;sketch=0;fillStyle=solid;size=6;pointerEvents=1;points=[];fillColor=none;resizable=0;rotatable=0;perimeter=centerPerimeter;snapToPoint=1;" vertex="1" parent="1">
          <mxGeometry x="310" y="550" width="20" height="20" as="geometry" />
        </mxCell>
        <mxCell id="9axRHv_cUufyyjQwxjc5-2" value="" style="shape=waypoint;sketch=0;fillStyle=solid;size=6;pointerEvents=1;points=[];fillColor=none;resizable=0;rotatable=0;perimeter=centerPerimeter;snapToPoint=1;" vertex="1" parent="1">
          <mxGeometry x="430" y="550" width="20" height="20" as="geometry" />
        </mxCell>
        <mxCell id="9axRHv_cUufyyjQwxjc5-3" value="" style="shape=waypoint;sketch=0;fillStyle=solid;size=6;pointerEvents=1;points=[];fillColor=none;resizable=0;rotatable=0;perimeter=centerPerimeter;snapToPoint=1;" vertex="1" parent="1">
          <mxGeometry x="370" y="610" width="20" height="20" as="geometry" />
        </mxCell>
        <mxCell id="9axRHv_cUufyyjQwxjc5-4" value="" style="shape=waypoint;sketch=0;fillStyle=solid;size=6;pointerEvents=1;points=[];fillColor=none;resizable=0;rotatable=0;perimeter=centerPerimeter;snapToPoint=1;" vertex="1" parent="1">
          <mxGeometry x="370" y="490" width="20" height="20" as="geometry" />
        </mxCell>
        <mxCell id="9axRHv_cUufyyjQwxjc5-5" value="" style="endArrow=classic;html=1;rounded=0;" edge="1" parent="1" source="9axRHv_cUufyyjQwxjc5-4" target="9axRHv_cUufyyjQwxjc5-2">
          <mxGeometry width="50" height="50" relative="1" as="geometry">
            <mxPoint x="420" y="580" as="sourcePoint" />
            <mxPoint x="470" y="530" as="targetPoint" />
          </mxGeometry>
        </mxCell>
        <mxCell id="9axRHv_cUufyyjQwxjc5-6" value="" style="endArrow=classic;html=1;rounded=0;" edge="1" parent="1" source="9axRHv_cUufyyjQwxjc5-2" target="9axRHv_cUufyyjQwxjc5-3">
          <mxGeometry width="50" height="50" relative="1" as="geometry">
            <mxPoint x="420" y="580" as="sourcePoint" />
            <mxPoint x="470" y="530" as="targetPoint" />
          </mxGeometry>
        </mxCell>
        <mxCell id="9axRHv_cUufyyjQwxjc5-7" value="" style="endArrow=classic;html=1;rounded=0;" edge="1" parent="1" source="9axRHv_cUufyyjQwxjc5-3" target="9axRHv_cUufyyjQwxjc5-4">
          <mxGeometry width="50" height="50" relative="1" as="geometry">
            <mxPoint x="420" y="580" as="sourcePoint" />
            <mxPoint x="470" y="530" as="targetPoint" />
          </mxGeometry>
        </mxCell>
        <mxCell id="9axRHv_cUufyyjQwxjc5-8" value="" style="endArrow=classic;html=1;rounded=0;exitX=0.07;exitY=1.1;exitDx=0;exitDy=0;exitPerimeter=0;entryX=0.61;entryY=1;entryDx=0;entryDy=0;entryPerimeter=0;" edge="1" parent="1" source="9axRHv_cUufyyjQwxjc5-4" target="9axRHv_cUufyyjQwxjc5-1">
          <mxGeometry width="50" height="50" relative="1" as="geometry">
            <mxPoint x="420" y="580" as="sourcePoint" />
            <mxPoint x="470" y="530" as="targetPoint" />
          </mxGeometry>
        </mxCell>
        <mxCell id="9axRHv_cUufyyjQwxjc5-9" value="" style="endArrow=classic;html=1;rounded=0;exitX=0.39;exitY=0.9;exitDx=0;exitDy=0;exitPerimeter=0;" edge="1" parent="1" source="9axRHv_cUufyyjQwxjc5-1" target="9axRHv_cUufyyjQwxjc5-3">
          <mxGeometry width="50" height="50" relative="1" as="geometry">
            <mxPoint x="420" y="580" as="sourcePoint" />
            <mxPoint x="470" y="530" as="targetPoint" />
          </mxGeometry>
        </mxCell>
      </root>
    </mxGraphModel>
  </diagram>
</mxfile>
